<svg xmlns="http://www.w3.org/2000/svg" xmlns:xlink="http://www.w3.org/1999/xlink" width="500" zoomAndPan="magnify" viewBox="0 0 375 374.999991" height="500" preserveAspectRatio="xMidYMid meet" version="1.0"><defs><clipPath id="a2d59b3ba2"><path d="M 37.5 18.75 L 309.75 18.75 L 309.75 356.25 L 37.5 356.25 Z M 37.5 18.75 " clip-rule="nonzero"/></clipPath><clipPath id="192b5bfa75"><path d="M 0.5 0.75 L 272.609375 0.75 L 272.609375 338.160156 L 0.5 338.160156 Z M 0.5 0.75 " clip-rule="nonzero"/></clipPath><clipPath id="0a3850da4a"><rect x="0" width="273" y="0" height="339"/></clipPath></defs><g clip-path="url(#a2d59b3ba2)"><g transform="matrix(1, 0, 0, 1, 37, 18)"><g clip-path="url(#0a3850da4a)"><g clip-path="url(#192b5bfa75)"><path fill="#ff3b7f" d="M 125.605469 337.507812 C 125.609375 337.488281 116.363281 337.917969 99.691406 337.074219 C 91.351562 336.65625 81.167969 335.929688 69.375 334.792969 C 57.574219 333.664062 44.183594 332.109375 29.386719 330.171875 L 28.691406 330.085938 L 28.34375 330.035156 L 28.089844 329.996094 C 27.769531 329.941406 27.453125 329.863281 27.148438 329.753906 C 26.535156 329.542969 25.945312 329.242188 25.371094 328.832031 C 24.226562 328.03125 23.171875 326.839844 22.246094 325.449219 C 20.386719 322.640625 19.03125 319.113281 17.941406 315.417969 C 15.785156 307.96875 14.605469 299.714844 13.777344 291.148438 C 12.1875 273.964844 12.070312 255.324219 12.488281 235.742188 C 12.941406 216.144531 14.019531 195.550781 15.503906 174.226562 C 16.261719 163.566406 17.105469 152.714844 18.066406 141.71875 C 19.039062 130.734375 20.085938 119.5625 21.378906 108.386719 C 21.703125 105.609375 22.039062 102.808594 22.425781 100.179688 C 22.523438 99.542969 22.628906 98.882812 22.722656 98.394531 L 22.773438 98.140625 C 22.808594 98.128906 22.980469 98.183594 21.820312 97.898438 L 19.539062 97.292969 C 18.796875 97.050781 18.226562 96.964844 17.65625 96.769531 C 11.992188 94.34375 23.605469 99.316406 22.53125 98.824219 L 22.878906 98.050781 C 23.351562 97.027344 23.875 96.050781 24.457031 95.121094 C 26.761719 91.398438 29.992188 88.4375 34.03125 86.078125 C 38.058594 83.722656 42.773438 81.949219 47.730469 80.441406 C 52.699219 78.929688 57.90625 77.636719 63.175781 76.207031 C 68.449219 74.777344 73.804688 73.207031 79.078125 71.117188 C 84.347656 69.03125 89.554688 66.398438 94.265625 62.9375 C 103.523438 56.09375 110.339844 47.304688 115.679688 38.527344 C 118.363281 34.136719 120.707031 29.71875 122.957031 25.503906 C 124.085938 23.402344 125.191406 21.347656 126.316406 19.421875 C 127.441406 17.5 128.601562 15.6875 129.789062 14.214844 C 130.976562 12.726562 132.199219 11.667969 133.164062 11.246094 C 133.40625 11.136719 133.640625 11.058594 133.882812 10.996094 C 133.949219 10.976562 134.238281 10.929688 134.480469 10.894531 L 135.242188 10.785156 C 136.28125 10.648438 137.371094 10.539062 138.460938 10.433594 C 142.839844 10.035156 147.277344 9.785156 151.621094 9.574219 C 169.042969 8.78125 185.390625 8.496094 200.238281 8.648438 C 203.953125 8.691406 207.574219 8.773438 211.078125 8.9375 C 212.832031 9.019531 214.554688 9.121094 216.230469 9.265625 C 217.886719 9.414062 219.589844 9.585938 220.902344 9.941406 C 223.679688 10.691406 226.167969 12.484375 228.296875 14.574219 C 230.441406 16.675781 232.285156 19.0625 233.976562 21.433594 C 237.355469 26.214844 240.195312 30.972656 243.007812 35.226562 C 245.796875 39.496094 248.527344 43.3125 251.257812 46.511719 C 253.984375 49.71875 256.714844 52.304688 259.289062 54.257812 C 261.863281 56.222656 264.269531 57.554688 266.269531 58.464844 C 268.277344 59.378906 269.882812 59.882812 270.964844 60.191406 C 272.050781 60.496094 272.617188 60.617188 272.613281 60.621094 C 272.617188 60.617188 272.050781 60.496094 270.96875 60.171875 C 269.894531 59.84375 268.304688 59.296875 266.335938 58.328125 C 264.371094 57.359375 262.039062 55.9375 259.585938 53.886719 C 257.128906 51.84375 254.570312 49.164062 252.058594 45.863281 C 249.542969 42.570312 247.082031 38.660156 244.578125 34.261719 C 242.054688 29.871094 239.539062 24.96875 236.390625 19.828125 C 234.804688 17.277344 233.054688 14.648438 230.835938 12.148438 C 228.625 9.683594 225.832031 7.253906 222.152344 5.960938 C 220.246094 5.320312 218.539062 5.078125 216.769531 4.785156 C 215.015625 4.511719 213.253906 4.289062 211.464844 4.085938 C 207.890625 3.683594 204.234375 3.351562 200.492188 3.054688 C 185.507812 1.90625 169.132812 1.125 151.449219 0.898438 C 147.019531 0.867188 142.523438 0.855469 137.847656 1.015625 C 136.675781 1.0625 135.492188 1.117188 134.257812 1.214844 L 133.316406 1.292969 C 132.992188 1.328125 132.707031 1.351562 132.214844 1.425781 C 131.320312 1.566406 130.445312 1.792969 129.613281 2.101562 C 127.949219 2.714844 126.503906 3.601562 125.28125 4.550781 C 124.050781 5.503906 123.011719 6.53125 122.078125 7.566406 C 120.222656 9.640625 118.753906 11.757812 117.371094 13.859375 C 116 15.960938 114.734375 18.058594 113.488281 20.136719 C 111.003906 24.292969 108.589844 28.390625 105.949219 32.3125 C 103.316406 36.230469 100.488281 39.988281 97.328125 43.417969 C 94.183594 46.832031 90.664062 49.988281 86.90625 52.574219 C 83.191406 55.109375 78.957031 57.132812 74.375 58.792969 C 69.792969 60.457031 64.882812 61.777344 59.761719 63.046875 C 54.636719 64.3125 49.289062 65.503906 43.773438 67.089844 C 38.277344 68.683594 32.535156 70.621094 26.933594 73.820312 C 24.148438 75.414062 21.40625 77.335938 18.910156 79.632812 C 16.410156 81.929688 14.160156 84.597656 12.335938 87.507812 C 11.414062 88.960938 10.597656 90.464844 9.882812 92 L 9.363281 93.160156 C 9.34375 93.199219 9.183594 93.59375 9.183594 93.609375 C 9.078125 93.894531 8.984375 94.222656 8.96875 94.273438 L 8.820312 94.851562 L 8.648438 95.636719 C 8.476562 96.53125 8.359375 97.273438 8.242188 98.03125 C 7.796875 101.007812 7.445312 103.84375 7.109375 106.71875 C 5.792969 118.179688 4.792969 129.429688 3.941406 140.558594 C 3.09375 151.675781 2.417969 162.640625 1.914062 173.421875 C 0.898438 194.992188 0.511719 215.835938 0.910156 235.71875 C 1.339844 255.605469 2.449219 274.539062 5.136719 292.21875 C 6.519531 301.054688 8.246094 309.589844 11.144531 317.65625 C 12.628906 321.671875 14.378906 325.609375 17.070312 329.175781 C 18.421875 330.941406 20.0625 332.621094 22.144531 333.878906 C 23.183594 334.511719 24.328125 335.007812 25.53125 335.328125 C 26.128906 335.484375 26.738281 335.589844 27.351562 335.660156 L 27.796875 335.699219 L 28.148438 335.722656 L 28.847656 335.761719 C 43.773438 336.714844 57.308594 337.34375 69.183594 337.699219 C 81.066406 338.054688 91.300781 338.152344 99.664062 338.101562 C 108.023438 338.066406 114.503906 337.890625 118.902344 337.746094 Z M 125.605469 337.507812 " fill-opacity="1" fill-rule="evenodd"/></g><path fill="#ff3b7f" d="M 174.644531 337.507812 C 174.648438 337.5 173.328125 337.515625 170.820312 337.367188 C 168.3125 337.214844 164.617188 336.894531 159.929688 336.085938 C 155.242188 335.277344 149.5625 333.984375 143.207031 331.832031 C 136.855469 329.6875 129.832031 326.679688 122.589844 322.53125 C 115.351562 318.378906 107.894531 313.085938 100.78125 306.5 C 93.667969 299.9375 86.90625 292.085938 81.082031 283.050781 C 75.253906 274.023438 70.378906 263.804688 67.011719 252.726562 C 63.632812 241.652344 61.785156 229.722656 61.785156 217.460938 C 61.78125 205.203125 63.621094 193.273438 66.996094 182.195312 C 70.367188 171.113281 75.238281 160.894531 81.066406 151.867188 C 86.886719 142.828125 93.660156 134.980469 100.769531 128.414062 C 107.882812 121.832031 115.34375 116.539062 122.578125 112.386719 C 129.824219 108.238281 136.847656 105.230469 143.203125 103.089844 C 149.554688 100.9375 155.238281 99.644531 159.921875 98.839844 C 164.613281 98.035156 168.308594 97.710938 170.816406 97.5625 C 173.324219 97.410156 174.644531 97.425781 174.644531 97.421875 L 170.8125 97.410156 C 168.296875 97.417969 164.582031 97.460938 159.800781 97.8125 C 155.015625 98.171875 149.15625 98.851562 142.4375 100.289062 C 135.71875 101.726562 128.136719 103.941406 120.089844 107.375 C 112.054688 110.8125 103.550781 115.488281 95.230469 121.742188 C 86.90625 127.980469 78.765625 135.800781 71.625 145.242188 C 64.480469 154.660156 58.351562 165.707031 54.085938 177.972656 C 49.800781 190.21875 47.421875 203.679688 47.425781 217.464844 C 47.417969 231.25 49.789062 244.710938 54.070312 256.960938 C 58.339844 269.230469 64.464844 280.277344 71.609375 289.699219 C 78.75 299.140625 86.894531 306.960938 95.21875 313.199219 C 103.546875 319.453125 112.046875 324.128906 120.082031 327.5625 C 128.132812 331 135.71875 333.214844 142.433594 334.648438 C 149.152344 336.085938 155.015625 336.761719 159.800781 337.121094 C 164.582031 337.46875 168.296875 337.511719 170.8125 337.519531 Z M 174.644531 337.507812 " fill-opacity="1" fill-rule="evenodd"/><path fill="#ff3b7f" d="M 181.472656 307.472656 C 181.472656 307.46875 180.480469 307.480469 178.601562 307.386719 C 176.71875 307.292969 173.945312 307.082031 170.417969 306.539062 C 166.890625 305.988281 162.609375 305.09375 157.796875 303.570312 C 152.988281 302.050781 147.65625 299.894531 142.121094 296.875 C 136.59375 293.851562 130.875 289.957031 125.390625 285.0625 C 119.910156 280.179688 114.660156 274.300781 110.128906 267.472656 C 105.597656 260.652344 101.789062 252.890625 99.148438 244.433594 C 96.503906 235.984375 95.050781 226.847656 95.050781 217.464844 C 95.050781 208.082031 96.496094 198.945312 99.144531 190.496094 C 101.78125 182.035156 105.585938 174.269531 110.121094 167.453125 C 114.652344 160.625 119.902344 154.746094 125.382812 149.859375 C 130.867188 144.964844 136.59375 141.074219 142.117188 138.050781 C 147.652344 135.03125 152.992188 132.875 157.796875 131.355469 C 162.609375 129.832031 166.890625 128.941406 170.417969 128.390625 C 173.945312 127.847656 176.71875 127.636719 178.601562 127.542969 C 180.480469 127.449219 181.472656 127.460938 181.472656 127.457031 L 178.597656 127.464844 C 176.714844 127.488281 173.933594 127.558594 170.351562 127.878906 C 166.78125 128.203125 162.40625 128.789062 157.410156 129.953125 C 152.421875 131.121094 146.808594 132.878906 140.875 135.542969 C 134.945312 138.214844 128.703125 141.792969 122.613281 146.519531 C 116.527344 151.238281 110.589844 157.109375 105.402344 164.136719 C 100.214844 171.15625 95.769531 179.328125 92.679688 188.378906 C 89.582031 197.414062 87.867188 207.316406 87.871094 217.460938 C 87.867188 227.605469 89.578125 237.511719 92.675781 246.550781 C 95.765625 255.597656 100.207031 263.78125 105.394531 270.792969 C 110.585938 277.820312 116.519531 283.6875 122.609375 288.410156 C 128.703125 293.136719 134.945312 296.722656 140.875 299.386719 C 146.804688 302.050781 152.421875 303.808594 157.414062 304.972656 C 162.410156 306.140625 166.78125 306.726562 170.355469 307.054688 C 173.933594 307.371094 176.714844 307.4375 178.601562 307.464844 Z M 181.472656 307.472656 " fill-opacity="1" fill-rule="evenodd"/><path fill="#ff3b7f" d="M 53.269531 247.265625 C 53.273438 247.246094 52.070312 247.320312 49.988281 246.851562 C 47.921875 246.386719 44.980469 245.277344 42.085938 242.929688 C 39.183594 240.617188 36.378906 237.101562 34.402344 232.691406 C 32.417969 228.292969 31.25 223.027344 31.25 217.464844 C 31.246094 211.90625 32.410156 206.636719 34.398438 202.234375 C 36.375 197.824219 39.179688 194.308594 42.085938 192 C 44.980469 189.648438 47.921875 188.539062 49.988281 188.074219 C 52.070312 187.609375 53.273438 187.6875 53.269531 187.660156 C 53.269531 187.691406 52.085938 187.582031 49.945312 187.820312 C 47.820312 188.070312 44.667969 188.777344 41.28125 190.851562 C 37.90625 192.878906 34.390625 196.296875 31.824219 200.933594 C 29.246094 205.546875 27.648438 211.347656 27.660156 217.464844 C 27.648438 223.582031 29.238281 229.378906 31.820312 233.996094 C 34.386719 238.632812 37.90625 242.050781 41.28125 244.085938 C 44.664062 246.152344 47.820312 246.859375 49.945312 247.109375 C 52.085938 247.347656 53.269531 247.238281 53.269531 247.265625 Z M 53.269531 247.265625 " fill-opacity="1" fill-rule="evenodd"/><path fill="#ff3b7f" d="M 89.59375 48.507812 C 89.589844 48.511719 89.507812 48.230469 89.261719 47.722656 C 89.011719 47.222656 88.574219 46.488281 87.773438 45.722656 C 86.988281 44.957031 85.851562 44.175781 84.417969 43.5 C 82.988281 42.8125 81.265625 42.242188 79.328125 41.789062 C 75.441406 40.902344 70.671875 40.546875 65.46875 40.941406 C 60.261719 41.328125 54.613281 42.472656 48.960938 44.460938 C 43.308594 46.441406 38.183594 49.082031 33.875 52.035156 C 29.566406 54.984375 26.0625 58.234375 23.601562 61.375 C 22.367188 62.945312 21.398438 64.484375 20.722656 65.917969 C 20.042969 67.355469 19.675781 68.6875 19.570312 69.785156 C 19.460938 70.886719 19.613281 71.726562 19.761719 72.269531 C 19.910156 72.8125 20.039062 73.074219 20.03125 73.078125 C 20.039062 73.078125 19.910156 72.804688 19.832031 72.253906 C 19.757812 71.707031 19.757812 70.871094 20.074219 69.890625 C 20.386719 68.90625 21.019531 67.804688 21.945312 66.691406 C 22.878906 65.582031 24.097656 64.457031 25.566406 63.363281 C 28.492188 61.164062 32.347656 59.066406 36.734375 57.042969 C 41.132812 55.03125 46.074219 53.085938 51.335938 51.242188 C 56.601562 49.402344 61.679688 47.835938 66.371094 46.664062 C 71.0625 45.488281 75.382812 44.722656 79.042969 44.585938 C 80.871094 44.523438 82.535156 44.613281 83.960938 44.878906 C 85.386719 45.152344 86.582031 45.589844 87.457031 46.132812 C 88.34375 46.671875 88.890625 47.300781 89.195312 47.761719 C 89.503906 48.226562 89.589844 48.511719 89.59375 48.507812 Z M 89.59375 48.507812 " fill-opacity="1" fill-rule="evenodd"/><path fill="#ff3b7f" d="M 107 51.589844 C 107 51.585938 108.542969 50.019531 111.394531 47.246094 L 116.621094 42.214844 C 118.664062 40.269531 121 38.054688 123.640625 35.695312 C 126.285156 33.335938 129.242188 30.847656 132.644531 28.527344 C 133.496094 27.941406 134.371094 27.367188 135.273438 26.804688 C 136.171875 26.253906 137.128906 25.640625 138.007812 25.199219 C 139.847656 24.285156 141.980469 23.667969 144.199219 23.175781 C 148.660156 22.21875 153.523438 21.789062 158.578125 21.519531 C 163.632812 21.257812 168.898438 21.183594 174.304688 21.175781 L 190.117188 21.230469 C 192.679688 21.238281 195.195312 21.234375 197.664062 21.199219 L 201.332031 21.132812 C 202.519531 21.105469 203.6875 21.09375 204.839844 21.109375 C 209.453125 21.175781 213.816406 21.652344 217.75 22.703125 C 221.6875 23.734375 225.164062 25.363281 228.109375 27.25 C 231.0625 29.132812 233.523438 31.191406 235.628906 33.058594 C 237.734375 34.933594 239.496094 36.621094 240.9375 37.988281 L 245.394531 42.269531 C 245.390625 42.269531 243.828125 40.722656 241.117188 37.808594 C 239.757812 36.355469 238.117188 34.558594 236.132812 32.535156 C 234.144531 30.515625 231.804688 28.25 228.894531 26.097656 C 225.996094 23.941406 222.453125 21.972656 218.363281 20.628906 C 214.285156 19.265625 209.726562 18.515625 204.941406 18.234375 C 203.746094 18.164062 202.53125 18.117188 201.3125 18.101562 L 197.675781 18.027344 L 190.160156 17.832031 C 185.046875 17.703125 179.738281 17.582031 174.292969 17.589844 C 168.847656 17.597656 163.515625 17.734375 158.355469 18.125 C 153.199219 18.527344 148.210938 19.140625 143.511719 20.367188 C 141.175781 21 138.894531 21.777344 136.800781 22.957031 C 135.726562 23.578125 134.863281 24.214844 133.957031 24.84375 C 133.0625 25.480469 132.195312 26.125 131.355469 26.773438 C 128 29.386719 125.160156 32.132812 122.667969 34.6875 C 120.179688 37.25 118.003906 39.628906 116.09375 41.714844 L 111.210938 47.074219 C 108.523438 50 107.003906 51.589844 107 51.589844 Z M 107 51.589844 " fill-opacity="1" fill-rule="evenodd"/><path fill="#ff3b7f" d="M 76.324219 139.375 C 76.34375 139.378906 76.546875 136.261719 77.445312 130.707031 C 77.898438 127.929688 78.542969 124.546875 79.476562 120.664062 C 80.402344 116.78125 81.640625 112.410156 83.214844 107.644531 C 84.785156 102.882812 86.675781 97.699219 88.785156 92.195312 C 90.925781 86.714844 93.378906 80.910156 96.652344 75.257812 C 99.921875 69.648438 104.160156 64.144531 110.042969 60.5625 C 112.964844 58.773438 116.246094 57.476562 119.730469 56.664062 C 123.21875 55.84375 126.890625 55.472656 130.632812 55.386719 C 134.378906 55.304688 138.109375 55.496094 141.789062 55.824219 C 143.628906 55.988281 145.449219 56.1875 147.261719 56.410156 C 149.09375 56.636719 150.929688 56.847656 152.734375 57.039062 C 159.964844 57.808594 166.972656 58.320312 173.648438 58.609375 C 187.007812 59.179688 199.078125 58.820312 209.132812 57.773438 C 219.195312 56.746094 227.21875 54.980469 232.605469 53.308594 C 235.300781 52.480469 237.355469 51.707031 238.726562 51.152344 C 240.097656 50.589844 240.804688 50.261719 240.808594 50.265625 C 240.804688 50.234375 237.980469 51.628906 232.535156 53.058594 C 227.101562 54.507812 219.046875 55.851562 209.023438 56.375 C 199.003906 56.921875 187.042969 56.71875 173.820312 55.722656 C 167.207031 55.230469 160.277344 54.542969 153.121094 53.65625 L 147.710938 52.957031 C 145.871094 52.703125 144.003906 52.480469 142.117188 52.292969 C 138.347656 51.925781 134.484375 51.707031 130.550781 51.792969 C 126.621094 51.886719 122.695312 52.289062 118.902344 53.210938 C 115.109375 54.132812 111.460938 55.617188 108.238281 57.671875 C 105.011719 59.71875 102.242188 62.300781 99.941406 65.085938 C 97.632812 67.878906 95.75 70.851562 94.132812 73.839844 C 90.914062 79.824219 88.667969 85.820312 86.742188 91.445312 C 84.855469 97.085938 83.214844 102.355469 81.871094 107.234375 C 80.523438 112.105469 79.507812 116.566406 78.761719 120.507812 C 78.019531 124.445312 77.527344 127.863281 77.1875 130.664062 C 76.519531 136.265625 76.347656 139.375 76.324219 139.375 Z M 76.324219 139.375 " fill-opacity="1" fill-rule="evenodd"/><path fill="#ff3b7f" d="M 53.269531 175.351562 C 53.273438 175.355469 53.839844 173.574219 54.753906 170.328125 C 55.671875 167.078125 56.957031 162.355469 58.316406 156.457031 C 59.664062 150.5625 61.089844 143.484375 62.136719 135.527344 C 62.65625 131.542969 63.082031 127.347656 63.324219 122.972656 C 63.449219 120.785156 63.527344 118.554688 63.539062 116.285156 C 63.546875 115.152344 63.539062 114.011719 63.519531 112.855469 L 63.5 112.007812 C 63.496094 111.765625 63.496094 111.515625 63.511719 111.269531 C 63.53125 110.773438 63.585938 110.269531 63.664062 109.761719 C 63.992188 107.722656 64.707031 105.6875 65.574219 103.738281 C 66.445312 101.789062 67.472656 99.90625 68.5625 98.097656 C 70.753906 94.476562 73.183594 91.121094 75.589844 87.996094 C 80.425781 81.75 85.179688 76.375 89.21875 71.910156 C 93.265625 67.445312 96.632812 63.902344 98.945312 61.449219 C 101.269531 58.996094 102.488281 57.582031 102.476562 57.574219 C 102.492188 57.585938 101.253906 58.984375 98.761719 61.261719 C 96.296875 63.5625 92.640625 66.800781 88.222656 70.929688 C 83.816406 75.0625 78.617188 80.074219 73.351562 86.175781 C 70.730469 89.230469 68.09375 92.5625 65.675781 96.296875 C 64.476562 98.171875 63.339844 100.148438 62.351562 102.277344 C 61.371094 104.40625 60.523438 106.6875 60.121094 109.199219 C 60.019531 109.824219 59.953125 110.46875 59.925781 111.109375 C 59.910156 111.429688 59.90625 111.757812 59.917969 112.085938 L 59.941406 112.941406 L 60 116.28125 C 60.015625 118.496094 59.984375 120.679688 59.921875 122.824219 C 59.804688 127.121094 59.5625 131.269531 59.261719 135.21875 C 58.648438 143.125 57.789062 150.238281 56.933594 156.195312 C 56.074219 162.15625 55.203125 166.960938 54.507812 170.261719 C 53.816406 173.566406 53.277344 175.355469 53.269531 175.351562 Z M 53.269531 175.351562 " fill-opacity="1" fill-rule="evenodd"/><path fill="#ff3b7f" d="M 21.828125 314.222656 C 21.832031 314.21875 21.898438 314.585938 22.09375 315.273438 C 22.292969 315.957031 22.632812 316.960938 23.339844 318.136719 C 24.039062 319.308594 25.113281 320.636719 26.644531 321.871094 C 28.164062 323.105469 30.121094 324.253906 32.417969 325.175781 C 33.570312 325.636719 34.800781 326.046875 36.109375 326.394531 C 37.441406 326.738281 38.753906 327.035156 40.308594 327.210938 C 43.21875 327.433594 46.269531 327.480469 49.511719 327.382812 C 52.746094 327.269531 56.148438 327.011719 59.65625 326.464844 C 63.164062 325.902344 66.800781 325.109375 70.414062 323.625 C 72.214844 322.875 73.972656 321.945312 75.558594 320.679688 C 77.132812 319.429688 78.558594 317.710938 79.191406 315.617188 C 79.265625 315.347656 79.339844 315.109375 79.390625 314.789062 C 79.449219 314.457031 79.472656 314.164062 79.476562 313.878906 C 79.484375 313.308594 79.421875 312.792969 79.335938 312.300781 C 79.164062 311.320312 78.894531 310.445312 78.59375 309.597656 C 77.988281 307.921875 77.261719 306.398438 76.511719 304.953125 C 75.003906 302.054688 73.402344 299.453125 71.867188 297.042969 C 70.328125 294.636719 68.851562 292.4375 67.496094 290.433594 C 64.78125 286.429688 62.589844 283.191406 61.195312 280.882812 C 59.785156 278.578125 59.199219 277.195312 59.203125 277.195312 C 59.207031 277.191406 59.761719 278.582031 60.96875 281.003906 C 62.171875 283.429688 64.007812 286.894531 66.292969 291.15625 L 69.984375 298.125 C 71.28125 300.636719 72.652344 303.332031 73.90625 306.191406 C 74.527344 307.625 75.125 309.105469 75.578125 310.597656 C 76.011719 312.074219 76.347656 313.671875 75.949219 314.582031 C 75.109375 317.097656 72.191406 319.011719 69.03125 320.308594 C 65.824219 321.632812 62.398438 322.460938 59.074219 323.109375 C 55.734375 323.746094 52.460938 324.183594 49.320312 324.496094 C 46.195312 324.800781 43.171875 324.996094 40.40625 325.039062 C 39.128906 325.015625 37.730469 324.847656 36.484375 324.648438 C 35.214844 324.441406 34.007812 324.175781 32.875 323.847656 C 30.609375 323.195312 28.644531 322.308594 27.070312 321.28125 C 25.496094 320.25 24.328125 319.078125 23.554688 317.996094 C 22.769531 316.910156 22.359375 315.929688 22.125 315.261719 C 21.898438 314.59375 21.832031 314.21875 21.828125 314.222656 Z M 21.828125 314.222656 " fill-opacity="1" fill-rule="evenodd"/></g></g></g></svg>